<mxfile host="Electron" modified="2024-04-17T02:10:42.250Z" agent="Mozilla/5.0 (Windows NT 10.0; Win64; x64) AppleWebKit/537.36 (KHTML, like Gecko) draw.io/23.0.2 Chrome/120.0.6099.109 Electron/28.1.0 Safari/537.36" etag="2GHc6UYcnxKxUyq-NDnR" version="23.0.2" type="device">
  <diagram name="第 1 页" id="GOzqPICrE7adCgd7-A6L">
    <mxGraphModel dx="610" dy="702" grid="1" gridSize="10" guides="1" tooltips="1" connect="1" arrows="1" fold="1" page="1" pageScale="1" pageWidth="827" pageHeight="1169" math="0" shadow="0">
      <root>
        <mxCell id="0" />
        <mxCell id="1" parent="0" />
        <mxCell id="M_e9Dgh9J_bpqCJop1F3-6" style="edgeStyle=orthogonalEdgeStyle;rounded=0;orthogonalLoop=1;jettySize=auto;html=1;exitX=0.5;exitY=1;exitDx=0;exitDy=0;entryX=0.5;entryY=0;entryDx=0;entryDy=0;" edge="1" parent="1" source="M_e9Dgh9J_bpqCJop1F3-2" target="M_e9Dgh9J_bpqCJop1F3-4">
          <mxGeometry relative="1" as="geometry" />
        </mxCell>
        <mxCell id="M_e9Dgh9J_bpqCJop1F3-2" value="前向填充" style="rounded=1;whiteSpace=wrap;html=1;" vertex="1" parent="1">
          <mxGeometry x="270" y="230" width="120" height="60" as="geometry" />
        </mxCell>
        <mxCell id="M_e9Dgh9J_bpqCJop1F3-7" style="edgeStyle=orthogonalEdgeStyle;rounded=0;orthogonalLoop=1;jettySize=auto;html=1;exitX=0.5;exitY=1;exitDx=0;exitDy=0;" edge="1" parent="1" source="M_e9Dgh9J_bpqCJop1F3-4" target="M_e9Dgh9J_bpqCJop1F3-5">
          <mxGeometry relative="1" as="geometry" />
        </mxCell>
        <mxCell id="M_e9Dgh9J_bpqCJop1F3-4" value="调整时间精度" style="rounded=1;whiteSpace=wrap;html=1;" vertex="1" parent="1">
          <mxGeometry x="270" y="340" width="120" height="60" as="geometry" />
        </mxCell>
        <mxCell id="M_e9Dgh9J_bpqCJop1F3-11" style="edgeStyle=orthogonalEdgeStyle;rounded=0;orthogonalLoop=1;jettySize=auto;html=1;exitX=0.5;exitY=1;exitDx=0;exitDy=0;entryX=0.5;entryY=0;entryDx=0;entryDy=0;" edge="1" parent="1" source="M_e9Dgh9J_bpqCJop1F3-5" target="M_e9Dgh9J_bpqCJop1F3-8">
          <mxGeometry relative="1" as="geometry" />
        </mxCell>
        <mxCell id="M_e9Dgh9J_bpqCJop1F3-5" value="数据聚合" style="rounded=1;whiteSpace=wrap;html=1;" vertex="1" parent="1">
          <mxGeometry x="270" y="450" width="120" height="60" as="geometry" />
        </mxCell>
        <mxCell id="M_e9Dgh9J_bpqCJop1F3-12" style="edgeStyle=orthogonalEdgeStyle;rounded=0;orthogonalLoop=1;jettySize=auto;html=1;exitX=1;exitY=0.5;exitDx=0;exitDy=0;entryX=0;entryY=0.5;entryDx=0;entryDy=0;" edge="1" parent="1" source="M_e9Dgh9J_bpqCJop1F3-8" target="M_e9Dgh9J_bpqCJop1F3-10">
          <mxGeometry relative="1" as="geometry" />
        </mxCell>
        <mxCell id="M_e9Dgh9J_bpqCJop1F3-8" value="合并数据集" style="rounded=1;whiteSpace=wrap;html=1;" vertex="1" parent="1">
          <mxGeometry x="270" y="570" width="120" height="60" as="geometry" />
        </mxCell>
        <mxCell id="M_e9Dgh9J_bpqCJop1F3-16" style="edgeStyle=orthogonalEdgeStyle;rounded=0;orthogonalLoop=1;jettySize=auto;html=1;exitX=0.5;exitY=0;exitDx=0;exitDy=0;entryX=0.5;entryY=1;entryDx=0;entryDy=0;" edge="1" parent="1" source="M_e9Dgh9J_bpqCJop1F3-10" target="M_e9Dgh9J_bpqCJop1F3-13">
          <mxGeometry relative="1" as="geometry" />
        </mxCell>
        <mxCell id="M_e9Dgh9J_bpqCJop1F3-10" value="数据打标" style="rounded=1;whiteSpace=wrap;html=1;" vertex="1" parent="1">
          <mxGeometry x="470" y="570" width="120" height="60" as="geometry" />
        </mxCell>
        <mxCell id="M_e9Dgh9J_bpqCJop1F3-17" style="edgeStyle=orthogonalEdgeStyle;rounded=0;orthogonalLoop=1;jettySize=auto;html=1;exitX=0.5;exitY=0;exitDx=0;exitDy=0;entryX=0.5;entryY=1;entryDx=0;entryDy=0;" edge="1" parent="1" source="M_e9Dgh9J_bpqCJop1F3-13" target="M_e9Dgh9J_bpqCJop1F3-15">
          <mxGeometry relative="1" as="geometry" />
        </mxCell>
        <mxCell id="M_e9Dgh9J_bpqCJop1F3-20" style="edgeStyle=orthogonalEdgeStyle;rounded=0;orthogonalLoop=1;jettySize=auto;html=1;exitX=1;exitY=0.5;exitDx=0;exitDy=0;" edge="1" parent="1" source="M_e9Dgh9J_bpqCJop1F3-13" target="M_e9Dgh9J_bpqCJop1F3-18">
          <mxGeometry relative="1" as="geometry" />
        </mxCell>
        <mxCell id="M_e9Dgh9J_bpqCJop1F3-21" value="or" style="edgeLabel;html=1;align=center;verticalAlign=middle;resizable=0;points=[];" vertex="1" connectable="0" parent="M_e9Dgh9J_bpqCJop1F3-20">
          <mxGeometry x="-0.2533" relative="1" as="geometry">
            <mxPoint as="offset" />
          </mxGeometry>
        </mxCell>
        <mxCell id="M_e9Dgh9J_bpqCJop1F3-13" value="转换布尔值数据" style="rounded=1;whiteSpace=wrap;html=1;" vertex="1" parent="1">
          <mxGeometry x="470" y="450" width="120" height="60" as="geometry" />
        </mxCell>
        <mxCell id="M_e9Dgh9J_bpqCJop1F3-15" value="删除不必要的列" style="rounded=1;whiteSpace=wrap;html=1;" vertex="1" parent="1">
          <mxGeometry x="470" y="340" width="120" height="60" as="geometry" />
        </mxCell>
        <mxCell id="M_e9Dgh9J_bpqCJop1F3-19" style="edgeStyle=orthogonalEdgeStyle;rounded=0;orthogonalLoop=1;jettySize=auto;html=1;exitX=0.5;exitY=0;exitDx=0;exitDy=0;entryX=1;entryY=0.5;entryDx=0;entryDy=0;" edge="1" parent="1" source="M_e9Dgh9J_bpqCJop1F3-18" target="M_e9Dgh9J_bpqCJop1F3-15">
          <mxGeometry relative="1" as="geometry" />
        </mxCell>
        <mxCell id="M_e9Dgh9J_bpqCJop1F3-18" value="特征工程" style="rounded=1;whiteSpace=wrap;html=1;" vertex="1" parent="1">
          <mxGeometry x="640" y="450" width="120" height="60" as="geometry" />
        </mxCell>
      </root>
    </mxGraphModel>
  </diagram>
</mxfile>
